<svg xmlns="http://www.w3.org/2000/svg" width="10" height="10" viewBox="0 0 15 14" fill="none">
    <path d="M13.7238 0.454112C13.3338 0.0641116 12.7038 0.0641116 12.3138 0.454112L7.42383 5.33411L2.53383 0.444111C2.14383 0.0541113 1.51383 0.0541113 1.12383 0.444111C0.733829 0.834111 0.733829 1.46411 1.12383 1.85411L6.01383 6.74411L1.12383 11.6341C0.733829 12.0241 0.733829 12.6541 1.12383 13.0441C1.51383 13.4341 2.14383 13.4341 2.53383 13.0441L7.42383 8.15411L12.3138 13.0441C12.7038 13.4341 13.3338 13.4341 13.7238 13.0441C14.1138 12.6541 14.1138 12.0241 13.7238 11.6341L8.83383 6.74411L13.7238 1.85411C14.1038 1.47411 14.1038 0.834112 13.7238 0.454112Z" fill="white"/>
</svg>