<svg xmlns="http://www.w3.org/2000/svg" width="131" height="19" viewBox="0 0 131 19" fill="none">
  <path d="M42.3127 7.10847C41.9876 7.45774 41.8252 7.93679 41.8252 8.54562C41.8252 9.15531 41.9876 9.63262 42.3127 9.97754C42.6375 10.3233 43.0682 10.4958 43.6043 10.4958C44.1241 10.4958 44.5528 10.319 44.8899 9.96534C45.227 9.61259 45.3957 9.13876 45.3957 8.54562C45.3957 7.94463 45.227 7.46733 44.8899 7.1137C44.5528 6.76095 44.1241 6.58413 43.6043 6.58413C43.0682 6.58413 42.6375 6.7592 42.3127 7.10847ZM44.5244 5.48755C44.9265 5.75495 45.2169 6.11728 45.3957 6.57194V2.90417H47.1017V11.9216H45.3957V10.508C45.2169 10.9626 44.9265 11.3267 44.5244 11.5985C44.1222 11.8711 43.6367 12.007 43.0682 12.007C42.4995 12.007 41.9876 11.8685 41.5328 11.5924C41.0777 11.3163 40.7224 10.9165 40.4665 10.3921C40.2105 9.86779 40.0826 9.25287 40.0826 8.54562C40.0826 7.83924 40.2105 7.22432 40.4665 6.69998C40.7224 6.17564 41.0777 5.77585 41.5328 5.49974C41.9876 5.22364 42.4995 5.08515 43.0682 5.08515C43.6367 5.08515 44.1222 5.21929 44.5244 5.48755Z" fill="#282051"/>
  <path d="M52.8473 6.86459C52.5345 6.57978 52.1505 6.43781 51.6958 6.43781C51.2327 6.43781 50.8427 6.57978 50.5259 6.86459C50.2092 7.14854 50.0343 7.56749 50.0019 8.1197H53.28C53.3044 7.56749 53.1599 7.14854 52.8473 6.86459ZM54.9493 8.87485H50.0019C50.0263 9.47671 50.1888 9.91918 50.4894 10.2031C50.7898 10.4879 51.1636 10.6299 51.6104 10.6299C52.0083 10.6299 52.3395 10.5324 52.6035 10.3373C52.8675 10.1422 53.0361 9.87824 53.1094 9.54552H54.9252C54.8355 10.0167 54.6448 10.4392 54.3523 10.8128C54.0599 11.1865 53.6839 11.4791 53.2252 11.6899C52.766 11.9016 52.2562 12.007 51.6958 12.007C51.0377 12.007 50.4529 11.8667 49.9411 11.5863C49.4293 11.3058 49.031 10.906 48.7468 10.386C48.4623 9.86604 48.3203 9.25287 48.3203 8.54562C48.3203 7.83924 48.4623 7.22432 48.7468 6.69998C49.031 6.17564 49.4293 5.77585 49.9411 5.49974C50.4529 5.22364 51.0377 5.08515 51.6958 5.08515C52.3619 5.08515 52.9448 5.22364 53.4443 5.49974C53.9442 5.77585 54.3299 6.15561 54.6019 6.63901C54.8743 7.12241 55.0104 7.67288 55.0104 8.29042C55.0104 8.46113 54.9901 8.65536 54.9493 8.87485Z" fill="#282051"/>
  <path d="M59.1657 10.2032L60.8717 5.1706H62.6996L60.2014 11.9217H58.1055L55.6073 5.1706H57.4474L59.1657 10.2032Z" fill="#282051"/>
  <path d="M68.8593 5.79152C69.4403 6.26273 69.8035 6.90466 69.9498 7.7173H68.1346C68.0615 7.36019 67.8951 7.07799 67.6347 6.87069C67.3743 6.6634 67.0459 6.55975 66.6479 6.55975C66.1923 6.55975 65.8126 6.72872 65.5082 7.0658C65.2036 7.40287 65.0514 7.89585 65.0514 8.54562C65.0514 9.19625 65.2036 9.68923 65.5082 10.0263C65.8126 10.3643 66.1923 10.5324 66.6479 10.5324C67.0459 10.5324 67.3743 10.4287 67.6347 10.2214C67.8951 10.0141 68.0615 9.73191 68.1346 9.37481H69.9498C69.8035 10.1874 69.4403 10.8294 68.8593 11.2997C68.2784 11.7709 67.5537 12.007 66.6844 12.007C66.026 12.007 65.4414 11.8667 64.9295 11.5863C64.4177 11.3058 64.0195 10.906 63.7352 10.386C63.4508 9.86604 63.3087 9.25287 63.3087 8.54562C63.3087 7.83924 63.4508 7.22432 63.7352 6.69998C64.0195 6.17564 64.4177 5.77585 64.9295 5.49974C65.4414 5.22364 66.026 5.08515 66.6844 5.08515C67.5537 5.08515 68.2784 5.32119 68.8593 5.79152Z" fill="#282051"/>
  <path d="M77.0545 5.8404C77.5179 6.35254 77.7487 7.07199 77.7487 7.99785V11.9217H76.0433V8.19295C76.0433 7.65642 75.9048 7.24009 75.6287 6.94395C75.3526 6.64694 74.9746 6.49887 74.4955 6.49887C74.0078 6.49887 73.6184 6.65739 73.3258 6.97443C73.0331 7.29061 72.8868 7.74613 72.8868 8.33928V11.9217H71.1683V2.90426H72.8868V6.52325C73.0654 6.06859 73.3598 5.71323 73.77 5.45716C74.1802 5.20108 74.6541 5.07304 75.1897 5.07304C75.9701 5.07304 76.5912 5.32912 77.0545 5.8404Z" fill="#282051"/>
  <path d="M81.1491 7.10847C80.8233 7.45774 80.6613 7.93679 80.6613 8.54562C80.6613 9.15531 80.8233 9.63262 81.1491 9.97754C81.474 10.3233 81.9042 10.4958 82.4408 10.4958C82.9607 10.4958 83.3893 10.319 83.7264 9.96534C84.0634 9.61259 84.2315 9.13876 84.2315 8.54562C84.2315 7.94463 84.0634 7.46733 83.7264 7.1137C83.3893 6.76095 82.9607 6.58413 82.4408 6.58413C81.9042 6.58413 81.474 6.7592 81.1491 7.10847ZM83.3666 5.48755C83.7725 5.75495 84.0617 6.11728 84.2315 6.57194V5.17051H85.9378V11.9216H84.2315V10.508C84.0617 10.9626 83.7725 11.3267 83.3666 11.5985C82.9608 11.8711 82.473 12.007 81.9042 12.007C81.3355 12.007 80.8233 11.8685 80.3687 11.5924C79.914 11.3163 79.5586 10.9165 79.3026 10.3921C79.0465 9.86779 78.9185 9.25287 78.9185 8.54562C78.9185 7.83924 79.0465 7.22432 79.3026 6.69998C79.5586 6.17564 79.914 5.77585 80.3687 5.49974C80.8233 5.22364 81.3355 5.08515 81.9042 5.08515C82.473 5.08515 82.9608 5.21929 83.3666 5.48755Z" fill="#282051"/>
  <path d="M89.2162 2.90426V11.9217H87.4977V2.90426H89.2162Z" fill="#282051"/>
  <path d="M92.4937 2.90426V11.9217H90.7753V2.90426H92.4937Z" fill="#282051"/>
  <path d="M98.2397 6.86459C97.9262 6.57978 97.5429 6.43781 97.0883 6.43781C96.6249 6.43781 96.2347 6.57978 95.9176 6.86459C95.6015 7.14854 95.4264 7.56749 95.3942 8.1197H98.6717C98.6961 7.56749 98.5524 7.14854 98.2397 6.86459ZM100.341 8.87485H95.3942C95.4186 9.47671 95.5806 9.91918 95.8811 10.2031C96.1816 10.4879 96.5552 10.6299 97.0029 10.6299C97.4001 10.6299 97.7319 10.5324 97.9958 10.3373C98.2597 10.1422 98.4279 9.87824 98.501 9.54552H100.317C100.227 10.0167 100.037 10.4392 99.7448 10.8128C99.4521 11.1865 99.0759 11.4791 98.6169 11.6899C98.1578 11.9016 97.6483 12.007 97.0883 12.007C96.4298 12.007 95.8453 11.8667 95.3332 11.5863C94.8211 11.3058 94.423 10.906 94.1391 10.386C93.8543 9.86604 93.7123 9.25287 93.7123 8.54562C93.7123 7.83924 93.8543 7.22432 94.1391 6.69998C94.423 6.17564 94.8211 5.77585 95.3332 5.49974C95.8453 5.22364 96.4298 5.08515 97.0883 5.08515C97.7537 5.08515 98.3373 5.22364 98.8363 5.49974C99.3363 5.77585 99.7222 6.15561 99.9939 6.63901C100.267 7.12241 100.402 7.67288 100.402 8.29042C100.402 8.46113 100.382 8.65536 100.341 8.87485Z" fill="#282051"/>
  <path d="M107.507 5.8404C107.97 6.35254 108.201 7.07199 108.201 7.99785V11.9217H106.495V8.19295C106.495 7.65642 106.357 7.24009 106.081 6.94395C105.804 6.64694 105.427 6.49887 104.947 6.49887C104.46 6.49887 104.07 6.65739 103.778 6.97443C103.486 7.29061 103.339 7.74613 103.339 8.33928V11.9217H101.621V5.1706H103.339V6.52325C103.518 6.06859 103.812 5.71323 104.223 5.45716C104.633 5.20108 105.106 5.07304 105.642 5.07304C106.422 5.07304 107.044 5.32912 107.507 5.8404Z" fill="#282051"/>
  <path d="M111.601 7.10863C111.276 7.4579 111.114 7.93695 111.114 8.54577C111.114 9.15547 111.276 9.63278 111.601 9.9777C111.926 10.3235 112.357 10.4959 112.893 10.4959C113.413 10.4959 113.841 10.3191 114.178 9.9655C114.515 9.61275 114.684 9.13892 114.684 8.54577C114.684 7.94479 114.515 7.46749 114.178 7.11386C113.841 6.76111 113.413 6.58429 112.893 6.58429C112.357 6.58429 111.926 6.75936 111.601 7.10863ZM113.819 5.48771C114.225 5.75511 114.513 6.11744 114.684 6.5721V5.17067H116.39V11.9461C116.39 12.5715 116.266 13.1342 116.019 13.6341C115.77 14.1332 115.401 14.5252 114.91 14.81C114.418 15.0939 113.823 15.2359 113.124 15.2359C112.15 15.2359 111.361 15.0051 110.76 14.5417C110.159 14.0783 109.794 13.4486 109.664 12.6525H111.357C111.455 12.994 111.644 13.2596 111.924 13.4512C112.204 13.642 112.563 13.7378 113.002 13.7378C113.506 13.7378 113.912 13.5888 114.221 13.2927C114.53 12.9957 114.684 12.5471 114.684 11.9461V10.5081C114.513 10.9628 114.225 11.3269 113.819 11.5986C113.413 11.8712 112.925 12.0071 112.357 12.0071C111.788 12.0071 111.276 11.8686 110.821 11.5925C110.366 11.3164 110.011 10.9166 109.755 10.3923C109.499 9.86795 109.371 9.25302 109.371 8.54577C109.371 7.8394 109.499 7.22448 109.755 6.70014C110.011 6.1758 110.366 5.77601 110.821 5.4999C111.276 5.22379 111.788 5.08531 112.357 5.08531C112.925 5.08531 113.413 5.21944 113.819 5.48771Z" fill="#282051"/>
  <path d="M122.135 6.86539C121.822 6.58158 121.438 6.43861 120.983 6.43861C120.521 6.43861 120.131 6.58158 119.813 6.86539C119.496 7.14991 119.322 7.5682 119.29 8.12062H122.567C122.592 7.5682 122.448 7.14991 122.135 6.86539ZM124.238 8.87615H119.29C119.314 9.4778 119.477 9.92022 119.777 10.2042C120.078 10.489 120.451 10.631 120.898 10.631C121.296 10.631 121.627 10.5334 121.891 10.3383C122.155 10.1432 122.324 9.87929 122.397 9.54661H124.213C124.123 10.0178 123.933 10.4402 123.64 10.8139C123.348 11.1875 122.972 11.4802 122.513 11.691C122.054 11.9026 121.544 12.008 120.983 12.008C120.325 12.008 119.74 11.8678 119.228 11.5873C118.717 11.3069 118.319 10.9071 118.034 10.387C117.75 9.86714 117.608 9.25395 117.608 8.54712C117.608 7.84029 117.75 7.22497 118.034 6.70043C118.319 6.17679 118.717 5.77735 119.228 5.50034C119.74 5.22422 120.325 5.08661 120.983 5.08661C121.65 5.08661 122.232 5.22422 122.732 5.50034C123.231 5.77735 123.617 6.15713 123.89 6.63967C124.162 7.12337 124.298 7.67382 124.298 8.29112C124.298 8.46179 124.278 8.65677 124.238 8.87615Z" fill="#282051"/>
  <path d="M129.818 5.70778C130.314 6.12204 130.623 6.67467 130.744 7.36502H129.135C129.071 7.0402 128.924 6.77999 128.697 6.58513C128.47 6.39009 128.173 6.29271 127.808 6.29271C127.515 6.29271 127.288 6.3618 127.124 6.49979C126.963 6.63807 126.881 6.82489 126.881 7.06036C126.881 7.24737 126.946 7.3976 127.076 7.51122C127.206 7.62503 127.369 7.71429 127.564 7.77927C127.759 7.84435 128.039 7.92157 128.404 8.01083C128.916 8.12473 129.332 8.24452 129.654 8.37038C129.975 8.49642 130.251 8.69538 130.483 8.96754C130.714 9.23998 130.829 9.60747 130.829 10.07C130.829 10.6475 130.604 11.1144 130.153 11.4714C129.702 11.8294 129.095 12.008 128.332 12.008C127.454 12.008 126.751 11.8111 126.223 11.4166C125.695 11.0229 125.374 10.4603 125.261 9.7294H126.905C126.946 10.0622 127.093 10.3243 127.345 10.5151C127.596 10.7058 127.925 10.8016 128.332 10.8016C128.624 10.8016 128.848 10.7303 129.002 10.5883C129.156 10.4463 129.233 10.2617 129.233 10.0334C129.233 9.83836 129.166 9.68067 129.032 9.55874C128.898 9.4368 128.732 9.34362 128.532 9.27827C128.333 9.213 128.051 9.13634 127.685 9.04671C127.181 8.93299 126.774 8.81722 126.461 8.6993C126.149 8.58166 125.88 8.39278 125.657 8.13276C125.433 7.87274 125.321 7.51542 125.321 7.06036C125.321 6.47542 125.545 6.00019 125.992 5.63457C126.438 5.26914 127.056 5.08624 127.844 5.08624C128.665 5.08624 129.322 5.29342 129.818 5.70778Z" fill="#282051"/>
  <path d="M35.3654 11.2086L24.6234 16.9154C24.2741 17.1009 23.8804 17.1993 23.4867 17.1993C22.5861 17.1993 21.7648 16.7055 21.3432 15.9111C21.0392 15.338 20.9756 14.683 21.1655 14.0629C21.3554 13.4427 21.7752 12.9349 22.3475 12.6309L33.0895 6.92418C33.4387 6.73778 33.8315 6.6411 34.2261 6.6411C34.5649 6.6411 34.8933 6.71078 35.1929 6.84143L35.3645 6.93289C35.793 7.15934 36.1397 7.506 36.367 7.93453C36.3749 7.9476 36.3836 7.96066 36.3923 7.97373C36.9846 9.14783 36.5308 10.5893 35.3654 11.2086ZM1.81287 10.2096C1.80764 10.1991 1.7998 10.1904 1.79283 10.18C1.19098 9.00325 1.64302 7.55391 2.81364 6.93289L13.5556 1.22525C13.9049 1.0406 14.2977 0.941309 14.6923 0.941309C15.592 0.941309 16.4134 1.43516 16.8358 2.22951C17.1389 2.80088 17.2016 3.45762 17.0117 4.07689C16.8219 4.69704 16.4029 5.20658 15.8315 5.50968L5.08955 11.2173C4.74028 11.4028 4.34659 11.5004 3.9529 11.5004C3.61409 11.5004 3.28572 11.4298 2.9861 11.3009L2.81364 11.2086C2.38598 10.9821 2.0402 10.6364 1.81287 10.2096ZM37.1387 7.51907C36.7895 6.86321 36.239 6.35803 35.5866 6.06277L27.5142 1.77485L25.3855 0.644295L25.3777 0.63994L25.0319 0.457031C24.5807 0.217506 24.0755 0.0868568 23.5669 0.0737915C23.5573 0.0737915 23.5477 0.0720577 23.5381 0.0720577C23.5207 0.0720577 23.5033 0.0703125 23.4867 0.0703125L23.4772 0.0711803C22.445 0.0607281 21.4242 0.531065 20.7753 1.42384L13.8279 10.6703C13.6841 10.862 13.7224 11.1354 13.915 11.28C14.1074 11.4246 14.38 11.3854 14.5246 11.1929L21.4756 1.94034C22.2612 0.858566 23.7811 0.618166 24.8638 1.4038C25.5911 1.93337 25.9656 2.81482 25.8402 3.70584C25.7853 4.09605 25.6329 4.47232 25.4047 4.78588L17.989 14.663C17.9786 14.3764 17.9315 14.089 17.8453 13.8085C17.5875 12.9663 17.0178 12.2747 16.24 11.861L10.3333 8.71146C10.1207 8.59823 9.85686 8.67924 9.7445 8.89176C9.63119 9.10341 9.71219 9.36732 9.9248 9.48055L15.8315 12.6309C16.4038 12.9349 16.8227 13.4427 17.0126 14.0629C17.2025 14.683 17.1398 15.338 16.8358 15.9111C16.5771 16.398 16.1678 16.7708 15.6835 16.9877C15.6182 17.0077 15.552 17.026 15.4849 17.0425C15.4248 17.0547 15.3708 17.08 15.3246 17.1148C15.1217 17.1697 14.9092 17.1993 14.6923 17.1993C14.2977 17.1993 13.9049 17.1009 13.5556 16.9154L6.28195 13.0508L4.79342 12.2608C5.03729 12.1954 5.2742 12.104 5.49805 11.9864L16.24 6.27964C17.017 5.86592 17.5866 5.17522 17.8444 4.33296C18.1022 3.48897 18.0169 2.59707 17.6049 1.82101C17.0309 0.74098 15.9152 0.0703125 14.6923 0.0703125C14.1558 0.0703125 13.6218 0.204441 13.1471 0.457031L2.40514 6.16293C0.799897 7.01564 0.187588 9.01544 1.04029 10.6207C1.38956 11.2774 1.94003 11.7817 2.59241 12.0779L2.74309 12.158H2.74483L5.15139 13.4366L13.1471 17.6845C13.6218 17.9371 14.1558 18.0703 14.6923 18.0703C15.153 18.0703 15.599 17.9745 16.0057 17.7986C16.6485 17.5799 17.2103 17.1697 17.6084 16.6218L26.1058 5.30412C26.4211 4.86862 26.6275 4.35909 26.7024 3.82778C26.7791 3.28167 26.7173 2.74165 26.5378 2.24257L27.8365 2.93153L33.3847 5.87986C33.1409 5.94431 32.9039 6.03576 32.681 6.15422L27.8374 8.72714L24.4231 6.92505C24.2097 6.81356 23.9476 6.89631 23.8361 7.1097C23.7246 7.3231 23.8065 7.58614 24.0199 7.69763L26.9054 9.22361L21.9381 11.861C21.1612 12.2747 20.5907 12.9663 20.3329 13.8085C20.075 14.649 20.1604 15.5418 20.5741 16.3196C21.1472 17.3988 22.263 18.0703 23.4867 18.0703C24.0224 18.0703 24.5572 17.9371 25.0319 17.6845L35.7739 11.9777C37.3791 11.1241 37.9914 9.12606 37.1387 7.51907Z" fill="#F0402C"/>
  <path d="M27.8365 2.93146L26.5378 2.24249L26.537 2.24076C26.2835 1.57358 25.8828 0.94471 25.3855 0.644217L27.5142 1.77478C27.6762 2.14234 27.786 2.52993 27.8365 2.93146Z" fill="#C73622"/>
  <path d="M5.15144 13.437L2.74487 12.1584C2.78311 12.1715 3.40727 12.3779 4.05703 12.3779C4.30962 12.3779 4.56604 12.3465 4.79346 12.2612L6.28199 13.0512C5.92575 13.2358 5.54425 13.3638 5.15144 13.437Z" fill="#C73622"/>
</svg>