<svg xmlns="http://www.w3.org/2000/svg" width="24" height="24" viewBox="0 0 25 25" fill="none">
    <g clip-path="url(#clip0_1_162)">
        <path d="M18.4047 13.2441H13.4047V18.2441C13.4047 18.7941 12.9547 19.2441 12.4047 19.2441C11.8547 19.2441 11.4047 18.7941 11.4047 18.2441V13.2441H6.40466C5.85466 13.2441 5.40466 12.7941 5.40466 12.2441C5.40466 11.6941 5.85466 11.2441 6.40466 11.2441H11.4047V6.24414C11.4047 5.69414 11.8547 5.24414 12.4047 5.24414C12.9547 5.24414 13.4047 5.69414 13.4047 6.24414V11.2441H18.4047C18.9547 11.2441 19.4047 11.6941 19.4047 12.2441C19.4047 12.7941 18.9547 13.2441 18.4047 13.2441Z" fill="#F2F2F2"/>
    </g>
    <defs>
        <clipPath id="clip0_1_162">
            <rect width="24" height="24" fill="white" transform="translate(0.404663 0.244141)"/>
        </clipPath>
    </defs>
</svg>