
<svg version="1.1" id="Capa_1" xmlns="http://www.w3.org/2000/svg" xmlns:xlink="http://www.w3.org/1999/xlink" x="0px" y="0px"
	 width="26px" height="26px" viewBox="0 0 26 26" enable-background="new 0 0 26 26" xml:space="preserve">
<g>
	<path fill="#FFFFFF" d="M13,16.658l-0.445,0.841l2.545,1.339l0.003,0.002c0.236,0.125,0.497,0.187,0.75,0.187
		c0.444-0.001,0.845-0.178,1.138-0.464c0.296-0.283,0.496-0.701,0.49-1.161l-0.019-0.278l-0.402-2.338l1.7-1.656l0.003-0.003
		c0.326-0.317,0.489-0.753,0.486-1.158c-0.001-0.378-0.127-0.74-0.365-1.036c-0.241-0.295-0.608-0.52-1.027-0.576l-2.348-0.343
		l-1.052-2.13C14.169,7.289,13.561,6.969,13,6.978c-0.562-0.009-1.171,0.312-1.461,0.905l-1.048,2.13l-2.349,0.343
		c-0.419,0.057-0.785,0.281-1.026,0.576C6.878,11.227,6.75,11.59,6.75,11.968c-0.003,0.406,0.161,0.845,0.489,1.159l1.701,1.658
		l-0.402,2.337l-0.023,0.279c-0.001,0.46,0.199,0.879,0.495,1.161c0.293,0.286,0.693,0.463,1.137,0.464
		c0.248,0,0.514-0.062,0.749-0.186l0.005-0.003l2.541-1.339L13,16.658l-0.445,0.841L13,16.658l-0.445-0.841l-2.542,1.337l0.01-0.002
		l0.124,0.238v-0.268l-0.124,0.029l0.124,0.238v-0.268v0.27l0.187-0.195l-0.187-0.074v0.27l0.187-0.195l-0.197,0.204h0.281
		l-0.084-0.204l-0.197,0.204h0.281h-0.254l0.251,0.042l0.003-0.042h-0.254l0.251,0.042l0.485-2.83
		c0.053-0.311-0.049-0.623-0.274-0.843l-2.059-2.005l-0.192,0.202h0.278l-0.08-0.2l-0.198,0.2h0.278H8.385l0.204,0.168l0.063-0.168
		H8.385l0.204,0.168l-0.213-0.177l0.037,0.278l0.176-0.102l-0.213-0.177l0.037,0.278l2.851-0.415
		c0.31-0.043,0.573-0.236,0.715-0.521l1.271-2.578L13,8.603v0.276l0.249-0.156L13,8.603v0.276V8.604l-0.248,0.121L13,8.879V8.604
		l-0.248,0.121l1.27,2.577c0.141,0.279,0.407,0.478,0.715,0.521l2.846,0.415l0.043-0.281l-0.217,0.179l0.174,0.103l0.043-0.281
		l-0.217,0.179l0.205-0.167h-0.267l0.062,0.167l0.205-0.167h-0.267h0.276l-0.196-0.198l-0.08,0.198h0.276l-0.196-0.198l0.003-0.004
		l-2.059,2.005c-0.22,0.218-0.328,0.534-0.271,0.843l0.485,2.83l0.241-0.042h-0.244l0.003,0.041l0.241-0.041h-0.244h0.28
		l-0.198-0.203l-0.082,0.203h0.28l-0.198-0.203l0.188,0.194v-0.27l-0.188,0.075l0.188,0.194v-0.27v0.271l0.127-0.242l-0.127-0.029
		v0.271l0.127-0.242l0.007,0.002l-2.545-1.337c-0.279-0.147-0.604-0.147-0.887,0L13,16.658z"/>
	<path fill="#FFFFFF" d="M25.047,12.049h-1.399c-0.522,0-0.949,0.427-0.949,0.951c0,0.525,0.427,0.951,0.949,0.951h1.399
		C25.573,13.951,26,13.525,26,13C26,12.476,25.573,12.049,25.047,12.049"/>
	<path fill="#FFFFFF" d="M2.348,12.049H0.949C0.427,12.049,0,12.476,0,13c0,0.525,0.427,0.951,0.949,0.951h1.398
		c0.527,0,0.954-0.426,0.954-0.951C3.302,12.476,2.875,12.049,2.348,12.049"/>
	<path fill="#FFFFFF" d="M21.028,3.627l-1.341,1.338c-0.369,0.371-0.369,0.975,0,1.346c0.372,0.371,0.977,0.371,1.345,0l1.342-1.338
		c0.373-0.373,0.373-0.975,0-1.346C22.006,3.254,21.401,3.254,21.028,3.627"/>
	<path fill="#FFFFFF" d="M5.001,22.406l1.341-1.34c0.368-0.371,0.368-0.973,0-1.344C5.97,19.35,5.365,19.35,4.996,19.721
		l-1.341,1.34c-0.373,0.371-0.373,0.974,0,1.346C4.023,22.777,4.627,22.777,5.001,22.406"/>
	<path fill="#FFFFFF" d="M3.626,5.002L4.967,6.34c0.369,0.372,0.974,0.372,1.342,0c0.373-0.372,0.373-0.974,0-1.346L4.972,3.656
		c-0.373-0.371-0.978-0.371-1.346,0C3.253,4.027,3.253,4.631,3.626,5.002"/>
	<path fill="#FFFFFF" d="M22.402,21.028l-1.336-1.339c-0.374-0.369-0.978-0.369-1.346,0.002c-0.373,0.37-0.373,0.975,0,1.344
		l1.337,1.339c0.373,0.373,0.978,0.373,1.345,0C22.776,22.002,22.776,21.401,22.402,21.028"/>
	<path fill="#FFFFFF" d="M12.047,23.712v1.337C12.047,25.573,12.474,26,13,26s0.949-0.427,0.949-0.951v-1.337
		c0-0.526-0.423-0.952-0.949-0.952S12.047,23.186,12.047,23.712"/>
	<path fill="#FFFFFF" d="M12.047,0.951V2.29c0,0.526,0.427,0.952,0.953,0.952s0.949-0.426,0.949-0.952V0.951
		C13.949,0.427,13.526,0,13,0S12.047,0.427,12.047,0.951"/>
</g>
</svg>
