<svg xmlns="http://www.w3.org/2000/svg" width="21" height="15" viewBox="0 0 21 15" fill="none">
    <path fill-rule="evenodd" clip-rule="evenodd" d="M18.0904 11.521L15.6305 7.26036C15.4543 6.95528 15.014 6.95527 14.8378 7.26036L12.378 11.521C12.2018 11.8261 12.422 12.2075 12.7743 12.2075H17.6941C18.0463 12.2075 18.2665 11.8261 18.0904 11.521ZM17.6121 6.11629C16.5552 4.28578 13.9131 4.28578 12.8563 6.11629L10.3964 10.3769C9.33953 12.2075 10.6606 14.4956 12.7743 14.4956H17.6941C19.8077 14.4956 21.1288 12.2075 20.072 10.3769L17.6121 6.11629Z" fill="#E0E0E0"/>
    <path fill-rule="evenodd" clip-rule="evenodd" d="M13.4552 11.4476L8.52261 2.90416C8.34648 2.59908 7.90612 2.59907 7.72998 2.90416L2.79739 11.4476C2.62125 11.7527 2.84143 12.1341 3.19371 12.1341H13.0589C13.4112 12.1341 13.6313 11.7527 13.4552 11.4476ZM10.5042 1.76009C9.44735 -0.0704218 6.80524 -0.0704194 5.74839 1.76009L0.815807 10.3036C-0.241039 12.1341 1.08002 14.4222 3.19371 14.4222H13.0589C15.1726 14.4222 16.4936 12.1341 15.4368 10.3036L10.5042 1.76009Z" fill="#E0E0E0"/>
</svg>